<svg width="24" height="25" viewBox="0 0 24 25" fill="none" xmlns="http://www.w3.org/2000/svg">
<g clip-path="url(#clip0_122_2005)">
<path d="M12.0119 19.9597C9.01369 19.9597 6.01627 19.9597 3.01806 19.9597C2.71493 19.9597 2.57479 20.0984 2.57479 20.3977C2.57479 20.4752 2.57872 20.5527 2.574 20.6295C2.5677 20.7225 2.55825 20.8155 2.54093 20.9062C2.47637 21.2372 2.15907 21.5023 1.77957 21.4984C1.39849 21.4946 1.08277 21.2116 1.02529 20.8481C1.01191 20.7628 1.00482 20.6752 1.00482 20.5891C1.00403 18.8279 0.992223 17.0659 1.00876 15.3046C1.0182 14.2783 1.39771 13.3853 2.12521 12.6419C2.56691 12.1907 3.09207 11.8698 3.69282 11.6651C4.16522 11.5046 4.65338 11.4558 5.15098 11.4558C9.76246 11.4574 14.3739 11.4535 18.9854 11.4589C20.3365 11.4605 21.4309 11.9969 22.2419 13.0636C22.6403 13.5884 22.8781 14.1845 22.9592 14.8357C22.9867 15.055 22.9985 15.2783 22.9993 15.5C23.0025 17.2101 23.0017 18.9202 23.0009 20.6302C23.0009 20.8977 22.934 21.1411 22.7104 21.3178C22.4741 21.5046 22.2104 21.5535 21.9293 21.4395C21.66 21.3295 21.49 21.1271 21.4514 20.838C21.4317 20.6922 21.4341 20.5426 21.4301 20.3953C21.4238 20.1574 21.3238 20.0139 21.1239 19.9698C21.0798 19.9597 21.0333 19.9605 20.9876 19.9605C17.9965 19.9605 15.0054 19.9605 12.0135 19.9605L12.0119 19.9597Z" fill="white"/>
<path d="M11.5475 5C13.4922 5 15.4362 5 17.3801 5C18.0313 5 18.6399 5.14341 19.165 5.53953C19.8406 6.04884 20.235 6.71938 20.2681 7.56124C20.2965 8.27519 20.2839 8.9907 20.287 9.70543C20.2894 10.1659 20.287 10.6264 20.287 11.0868C20.287 11.1279 20.2847 11.1713 20.2736 11.2109C20.2398 11.3357 20.1713 11.3853 20.0421 11.3612C19.9012 11.3349 19.765 11.2783 19.6241 11.2628C19.2926 11.2271 18.9603 11.2023 18.6273 11.1853C18.4053 11.1736 18.3368 11.1341 18.3053 10.9194C18.2045 10.2388 17.5644 9.62636 16.7455 9.63566C15.8322 9.64574 14.9189 9.63798 14.0064 9.63798C13.3269 9.63798 12.7466 10.0364 12.5159 10.6643C12.4828 10.7543 12.4703 10.8519 12.4529 10.9465C12.4206 11.1163 12.3569 11.1798 12.1852 11.1822C11.8254 11.186 11.4648 11.186 11.105 11.1822C10.9397 11.1806 10.8743 11.1163 10.8444 10.9279C10.8027 10.6636 10.6987 10.4279 10.5287 10.2209C10.2208 9.84574 9.82241 9.64186 9.33111 9.63953C8.38865 9.63488 7.4462 9.63721 6.50296 9.63876C5.71089 9.63953 5.09125 10.2488 4.99047 10.9178C4.95819 11.1341 4.89284 11.1721 4.67081 11.186C4.30312 11.2101 3.93543 11.2442 3.56853 11.2829C3.45594 11.2946 3.34807 11.3426 3.23627 11.3612C3.1158 11.3806 3.0599 11.3403 3.02605 11.224C3.01266 11.1783 3.00636 11.1295 3.00636 11.0814C3.00557 9.97674 2.99062 8.87209 3.00951 7.76744C3.02919 6.61163 3.57168 5.76202 4.63302 5.24806C5.05346 5.04574 5.50933 5 5.97072 5C7.82964 5 9.68856 5 11.5475 5Z" fill="white"/>
</g>
<defs>
<clipPath id="clip0_122_2005">
<rect width="22" height="17" fill="white" transform="translate(1 4.5)"/>
</clipPath>
</defs>
</svg>
